<svg xmlns="http://www.w3.org/2000/svg" role="img" aria-labelledby="title description" viewBox="0 0 1440 846" width="1440" height="846">
<title id="title">Benchmark: Plain against Evidence</title>
<desc id="description">Coverage of the provenance graph per subject, then token spend per subject with stacked shades for backend development and review, frontend development and review, and overall review. Work time and API cost read beside each bar.</desc>
<style>
  text { font-family: Inter, ui-sans-serif, system-ui, -apple-system, BlinkMacSystemFont, 'Segoe UI', sans-serif; fill: #172033; }
  .title { font-size: 27px; font-weight: 700; }
  .subtitle, .generated, .group-meta, .row-status { font-size: 13px; fill: #667085; }
  .group { fill: #e8f2fb; }
  .group-title { font-size: 21px; font-weight: 700; }
  .row-label { font-size: 17px; font-weight: 700; }
  .value { font-size: 16px; font-weight: 700; }
  .cost-value { font-size: 13px; font-weight: 600; fill: #526b82; }
  .legend { font-size: 12px; fill: #526b82; }
  .segment-label { font-size: 10px; font-weight: 700; fill: #ffffff; paint-order: stroke; stroke: #172033; stroke-opacity: 0.28; stroke-width: 1px; }
  .phase-segment { stroke: #ffffff; stroke-opacity: 0.86; stroke-width: 1px; }
  .track { fill: #e7edf4; stroke: #d5dee9; stroke-width: 1px; }
  .empty { font-size: 15px; fill: #667085; }
  .table-title { font-size: 15px; font-weight: 600; }
  .table-header { font-size: 11px; font-weight: 600; fill: #667085; }
  .table-cell { font-size: 12px; fill: #334155; }
  .table-rule { stroke: #dbe4ee; stroke-width: 1px; }
  .table-note { font-size: 11px; fill: #667085; }
</style>
<rect width="1440" height="846" fill="#ffffff"/>
<text x="36" y="38" class="title">Benchmark: Plain against Evidence</text>
<text x="36" y="62" class="subtitle">Coverage is higher-is-better. Token spend is lower-is-better and shares one axis across subjects; stacked shades show development and review phases, and work time and cost sit beside each bar.</text>
<rect x="36" y="82" width="18" height="12" rx="3" fill="#4c78a8" fill-opacity="0.44"/>
<text x="61" y="93" class="legend">Backend Dev</text>
<rect x="286" y="82" width="18" height="12" rx="3" fill="#4c78a8" fill-opacity="0.58"/>
<text x="311" y="93" class="legend">Backend Review</text>
<rect x="536" y="82" width="18" height="12" rx="3" fill="#4c78a8" fill-opacity="0.7"/>
<text x="561" y="93" class="legend">Frontend Dev</text>
<rect x="786" y="82" width="18" height="12" rx="3" fill="#4c78a8" fill-opacity="0.84"/>
<text x="811" y="93" class="legend">Frontend Review</text>
<rect x="1036" y="82" width="18" height="12" rx="3" fill="#4c78a8" fill-opacity="1"/>
<text x="1061" y="93" class="legend">Overall Review</text>
<rect x="28" y="124" width="1384" height="186" rx="10" class="group" fill-opacity="0.78"/>
<text x="60" y="155" class="group-title">Requirement Coverage</text>
<text x="1404" y="154" text-anchor="end" class="group-meta">higher is better</text>
<text x="60" y="200" class="row-label" fill="#4c78a8">Todo Plain</text>
<rect x="210" y="179" width="1044" height="30" rx="7" class="track"/>
<rect x="210" y="179" width="836.24" height="30" rx="7" fill="#4c78a8" data-coverage="80.1"/>
<text x="1404" y="201" text-anchor="end" class="value">80.1%</text>
<text x="60" y="240" class="row-label" fill="#4c78a8">Reddit Plain</text>
<rect x="210" y="219" width="1044" height="30" rx="7" class="track"/>
<rect x="210" y="219" width="651.46" height="30" rx="7" fill="#4c78a8" data-coverage="62.4"/>
<text x="1404" y="241" text-anchor="end" class="value">62.4%</text>
<text x="60" y="280" class="row-label" fill="#f58518">Evidence (every)</text>
<rect x="210" y="259" width="1044" height="30" rx="7" class="track"/>
<rect x="210" y="259" width="1044.00" height="30" rx="7" fill="#f58518" data-coverage="100"/>
<text x="1404" y="281" text-anchor="end" class="value">100.0% by construction</text>
<text x="36" y="328" class="table-note">Coverage measured by Claude Code Opus 5 — thirteen graph edges read from the source, composed so serial hops multiply and branches average. Evidence is 100% by construction: a cell that misses an edge does not compile.</text>
<rect x="28" y="346" width="1384" height="194" rx="10" class="group" fill-opacity="0.78"/>
<text x="60" y="375" class="group-title">Todo</text>
<text x="1404" y="374" text-anchor="end" class="group-meta">codex gpt-5.6-luna</text>
<text x="60" y="411" class="row-label" fill="#4c78a8">Plain</text>
<text x="60" y="434" class="row-status">completed</text>
<rect x="210" y="393" width="1044" height="36" rx="7" class="track"/>
<rect x="210.00" y="393" width="56.68" height="36" fill="#4c78a8" fill-opacity="0.44" class="phase-segment" data-phase="backend-development" data-tokens="29872719"/>
<text x="238.34" y="417" text-anchor="middle" class="segment-label">BE Dev</text>
<rect x="266.68" y="393" width="427.24" height="36" fill="#4c78a8" fill-opacity="0.58" class="phase-segment" data-phase="backend-review" data-tokens="225165342"/>
<text x="480.30" y="417" text-anchor="middle" class="segment-label">BE Rev</text>
<rect x="693.93" y="393" width="49.86" height="36" fill="#4c78a8" fill-opacity="0.7" class="phase-segment" data-phase="frontend-development" data-tokens="26279528"/>
<rect x="743.79" y="393" width="180.22" height="36" fill="#4c78a8" fill-opacity="0.84" class="phase-segment" data-phase="frontend-review" data-tokens="94981769"/>
<text x="833.90" y="417" text-anchor="middle" class="segment-label">FE Rev</text>
<rect x="924.01" y="393" width="320.03" height="36" fill="#4c78a8" fill-opacity="1" class="phase-segment" data-phase="overall-review" data-tokens="168663056"/>
<text x="1084.03" y="417" text-anchor="middle" class="segment-label">Overall</text>
<text x="1404" y="409" text-anchor="end" class="value">550.2M tokens</text>
<text x="1404" y="433" text-anchor="end" class="cost-value">11h 38m · $7.04</text>
<text x="60" y="479" class="row-label" fill="#f58518">Evidence</text>
<text x="60" y="502" class="row-status">completed</text>
<rect x="210" y="461" width="1044" height="36" rx="7" class="track"/>
<rect x="210.00" y="461" width="61.62" height="36" fill="#f58518" fill-opacity="0.44" class="phase-segment" data-phase="backend-development" data-tokens="32474293"/>
<text x="240.81" y="485" text-anchor="middle" class="segment-label">BE Dev</text>
<rect x="271.62" y="461" width="47.57" height="36" fill="#f58518" fill-opacity="0.58" class="phase-segment" data-phase="backend-review" data-tokens="25067684"/>
<rect x="319.18" y="461" width="68.07" height="36" fill="#f58518" fill-opacity="0.7" class="phase-segment" data-phase="frontend-development" data-tokens="35876257"/>
<text x="353.22" y="485" text-anchor="middle" class="segment-label">FE Dev</text>
<rect x="387.26" y="461" width="47.08" height="36" fill="#f58518" fill-opacity="0.84" class="phase-segment" data-phase="frontend-review" data-tokens="24811262"/>
<rect x="434.34" y="461" width="22.20" height="36" fill="#f58518" fill-opacity="1" class="phase-segment" data-phase="overall-review" data-tokens="11698563"/>
<text x="1404" y="477" text-anchor="end" class="value">129.9M tokens (-76%)</text>
<text x="1404" y="501" text-anchor="end" class="cost-value">3h 47m · $1.64</text>
<rect x="28" y="556" width="1384" height="194" rx="10" class="group" fill-opacity="0.42"/>
<text x="60" y="585" class="group-title">Reddit</text>
<text x="1404" y="584" text-anchor="end" class="group-meta">codex gpt-5.6-luna</text>
<text x="60" y="621" class="row-label" fill="#4c78a8">Plain</text>
<text x="60" y="644" class="row-status">completed</text>
<rect x="210" y="603" width="1044" height="36" rx="7" class="track"/>
<rect x="210.00" y="603" width="33.11" height="36" fill="#4c78a8" fill-opacity="0.44" class="phase-segment" data-phase="backend-development" data-tokens="17450090"/>
<rect x="243.11" y="603" width="669.45" height="36" fill="#4c78a8" fill-opacity="0.58" class="phase-segment" data-phase="backend-review" data-tokens="352811491"/>
<text x="577.83" y="627" text-anchor="middle" class="segment-label">BE Rev</text>
<rect x="912.56" y="603" width="60.19" height="36" fill="#4c78a8" fill-opacity="0.7" class="phase-segment" data-phase="frontend-development" data-tokens="31723600"/>
<text x="942.66" y="627" text-anchor="middle" class="segment-label">FE Dev</text>
<rect x="972.75" y="603" width="168.56" height="36" fill="#4c78a8" fill-opacity="0.84" class="phase-segment" data-phase="frontend-review" data-tokens="88835486"/>
<text x="1057.03" y="627" text-anchor="middle" class="segment-label">FE Rev</text>
<rect x="1141.31" y="603" width="31.70" height="36" fill="#4c78a8" fill-opacity="1" class="phase-segment" data-phase="overall-review" data-tokens="16705282"/>
<text x="1404" y="619" text-anchor="end" class="value">507.9M tokens</text>
<text x="1404" y="643" text-anchor="end" class="cost-value">13h 55m · $6.38</text>
<text x="60" y="689" class="row-label" fill="#f58518">Evidence</text>
<text x="60" y="712" class="row-status">completed</text>
<rect x="210" y="671" width="1044" height="36" rx="7" class="track"/>
<rect x="210.00" y="671" width="38.10" height="36" fill="#f58518" fill-opacity="0.44" class="phase-segment" data-phase="backend-development" data-tokens="20078882"/>
<rect x="248.10" y="671" width="41.78" height="36" fill="#f58518" fill-opacity="0.58" class="phase-segment" data-phase="backend-review" data-tokens="22019408"/>
<rect x="289.88" y="671" width="89.45" height="36" fill="#f58518" fill-opacity="0.7" class="phase-segment" data-phase="frontend-development" data-tokens="47141668"/>
<text x="334.60" y="695" text-anchor="middle" class="segment-label">FE Dev</text>
<rect x="379.33" y="671" width="97.88" height="36" fill="#f58518" fill-opacity="0.84" class="phase-segment" data-phase="frontend-review" data-tokens="51584370"/>
<text x="428.27" y="695" text-anchor="middle" class="segment-label">FE Rev</text>
<rect x="477.21" y="671" width="141.45" height="36" fill="#f58518" fill-opacity="1" class="phase-segment" data-phase="overall-review" data-tokens="74545453"/>
<text x="547.93" y="695" text-anchor="middle" class="segment-label">Overall</text>
<text x="1404" y="687" text-anchor="end" class="value">215.4M tokens (-58%)</text>
<text x="1404" y="711" text-anchor="end" class="cost-value">4h 58m · $2.65</text>
<text x="36" y="797" class="table-note">Native Codex counters: Cached input is included in Input; Reasoning is included in Output.</text>
<text x="36" y="812" class="table-note">API cost uses OpenRouter rates from 2026-08-01 and is emitted only after every measured request reconciles with retained counters. Review inspection runs on the cell&apos;s own model and effort, so its tokens, time, and price all sit inside these totals.</text>
<text x="36" y="832" class="generated">Generated 2026-08-06T08:07:02.025Z</text>
</svg>
