<svg xmlns="http://www.w3.org/2000/svg" role="img" aria-labelledby="title description" viewBox="0 0 1200 370" width="1200" height="370">
<title id="title">Benchmark work time</title>
<desc id="description">Retained native process time for the latest launched benchmark cells</desc>
<style>
  text { font-family: Inter, ui-sans-serif, system-ui, -apple-system, BlinkMacSystemFont, 'Segoe UI', sans-serif; fill: #172033; }
  .title { font-size: 24px; font-weight: 700; }
  .subtitle, .stage, .generated { font-size: 13px; fill: #667085; }
  .label { font-size: 14px; font-weight: 650; }
  .value { font-size: 14px; font-weight: 700; }
  .legend { font-size: 13px; font-weight: 600; }
  .empty { font-size: 15px; fill: #667085; }
  .track { fill: #eef1f6; }
</style>
<rect width="1200" height="370" fill="#ffffff"/>
<text x="32" y="38" class="title">Benchmark work time</text>
<text x="32" y="62" class="subtitle">Retained native process time for the latest launched benchmark cells</text>
<rect x="32" y="82" width="14" height="14" rx="3" fill="#4c78a8"/>
<text x="54" y="94" class="legend">Plain</text>
<rect x="118" y="82" width="14" height="14" rx="3" fill="#f58518"/>
<text x="140" y="94" class="legend">Evidence</text>
<text x="32" y="148" class="label">GPT-5.6-Luna · Todo Plain · running</text>
<text x="32" y="167" class="stage">Stage: backend-final</text>
<rect x="430" y="137" width="620" height="28" rx="4" class="track"/>
<rect x="430" y="137" width="321" height="28" rx="4" fill="#4c78a8"/>
<text x="1068" y="157" class="value">1h 52m</text>
<text x="32" y="200" class="label">GPT-5.6-Luna · Todo Evidence · completed</text>
<text x="32" y="219" class="stage">Stage: overall-final</text>
<rect x="430" y="189" width="620" height="28" rx="4" class="track"/>
<rect x="430" y="189" width="477" height="28" rx="4" fill="#f58518"/>
<text x="1068" y="209" class="value">2h 46m</text>
<text x="32" y="252" class="label">GPT-5.6-Luna · Reddit Plain · interrupted</text>
<text x="32" y="271" class="stage">Stage: backend-final</text>
<rect x="430" y="241" width="620" height="28" rx="4" class="track"/>
<rect x="430" y="241" width="241" height="28" rx="4" fill="#4c78a8"/>
<text x="1068" y="261" class="value">1h 24m</text>
<text x="32" y="304" class="label">GPT-5.6-Luna · Reddit Evidence · completed</text>
<text x="32" y="323" class="stage">Stage: overall-final</text>
<rect x="430" y="293" width="620" height="28" rx="4" class="track"/>
<rect x="430" y="293" width="620" height="28" rx="4" fill="#f58518"/>
<text x="1068" y="313" class="value">3h 35m</text>
<text x="32" y="358" class="generated">Generated 2026-07-31T21:49:05.469Z</text>
</svg>
