<svg xmlns="http://www.w3.org/2000/svg" role="img" aria-labelledby="title description" viewBox="0 0 1440 1096" width="1440" height="1096">
<title id="title">Reddit: Plain against Evidence</title>
<desc id="description">Coverage of the provenance graph, then token spend, work time and API cost. Every spend axis carries the same stacked phase shades.</desc>
<style>
  text { font-family: Inter, ui-sans-serif, system-ui, -apple-system, BlinkMacSystemFont, 'Segoe UI', sans-serif; fill: #172033; }
  .title { font-size: 27px; font-weight: 700; }
  .subtitle, .generated, .group-meta, .row-status { font-size: 13px; fill: #667085; }
  .group { fill: #e8f2fb; }
  .group-title { font-size: 21px; font-weight: 700; }
  .row-label { font-size: 17px; font-weight: 700; }
  .value { font-size: 16px; font-weight: 700; }
  .cost-value { font-size: 13px; font-weight: 600; fill: #526b82; }
  .legend { font-size: 12px; fill: #667085; }
  .legend-label { font-size: 12px; font-weight: 700; fill: #334155; }
  .segment-label { font-size: 10px; font-weight: 700; fill: #ffffff; paint-order: stroke; stroke: #172033; stroke-opacity: 0.28; stroke-width: 1px; }
  .phase-segment { stroke: #ffffff; stroke-opacity: 0.86; stroke-width: 1px; }
  .track { fill: #e7edf4; stroke: #d5dee9; stroke-width: 1px; }
  .empty { font-size: 15px; fill: #667085; }
  .table-note { font-size: 11px; fill: #667085; }
</style>
<rect width="1440" height="1096" fill="#ffffff"/>
<text x="36" y="38" class="title">Reddit: Plain against Evidence</text>
<text x="36" y="62" class="subtitle">One subject, one instruction sequence, codex gpt-5.6-luna. The Evidence arm adds a compiler-enforced provenance graph.</text>
<rect x="36" y="80" width="18" height="12" rx="3" fill="#4c78a8" fill-opacity="0.44"/>
<text x="62" y="91" class="legend-label">Backend Dev</text>
<text x="212" y="91" class="legend">First implementation of the schema, the API and their tests</text>
<rect x="36" y="100" width="18" height="12" rx="3" fill="#4c78a8" fill-opacity="0.58"/>
<text x="62" y="111" class="legend-label">Backend Review</text>
<text x="212" y="111" class="legend">Read the requirements and the backend in full, loop until dry</text>
<rect x="36" y="120" width="18" height="12" rx="3" fill="#4c78a8" fill-opacity="0.7"/>
<text x="62" y="131" class="legend-label">Frontend Dev</text>
<text x="212" y="131" class="legend">Hooks and screens built against the generated SDK</text>
<rect x="36" y="140" width="18" height="12" rx="3" fill="#4c78a8" fill-opacity="0.84"/>
<text x="62" y="151" class="legend-label">Frontend Review</text>
<text x="212" y="151" class="legend">The same loop until dry over the frontend, gated on live reloads rather than a build</text>
<rect x="36" y="160" width="18" height="12" rx="3" fill="#4c78a8" fill-opacity="1"/>
<text x="62" y="171" class="legend-label">Overall Review</text>
<text x="212" y="171" class="legend">Both layers and the live journeys together, loop until dry, then the closing gates</text>
<rect x="36" y="180" width="18" height="12" rx="3" fill="#94a3b8" fill-opacity="1"/>
<text x="62" y="191" class="legend-label">Review inspection</text>
<text x="212" y="191" class="legend">What judging a Review cost — spend that belongs to no stage</text>
<rect x="28" y="222" width="1384" height="146" rx="10" class="group" fill-opacity="0.78"/>
<text x="60" y="253" class="group-title">Coverage</text>
<text x="1404" y="252" text-anchor="end" class="group-meta">higher is better</text>
<text x="60" y="298" class="row-label" fill="#4c78a8">Reddit Plain</text>
<rect x="210" y="277" width="994" height="30" rx="7" class="track"/>
<rect x="210" y="277" width="620.26" height="30" rx="7" fill="#4c78a8" data-coverage="62.4"/>
<text x="1404" y="299" text-anchor="end" class="value" fill="#4c78a8">62.4%</text>
<text x="60" y="338" class="row-label" fill="#f58518">Evidence (every)</text>
<rect x="210" y="317" width="994" height="30" rx="7" class="track"/>
<rect x="210" y="317" width="994.00" height="30" rx="7" fill="#f58518" data-coverage="100"/>
<text x="1404" y="339" text-anchor="end" class="value" fill="#f58518">100.0%</text>
<text x="36" y="386" class="table-note">Coverage measured by Claude Code Opus 5 — thirteen graph edges read from the source, composed so serial hops multiply and branches average. Evidence is 100% by construction: a cell that misses an edge does not compile.</text>
<rect x="28" y="404" width="1384" height="194" rx="10" class="group" fill-opacity="0.78"/>
<text x="60" y="433" class="group-title">Tokens</text>
<text x="1404" y="432" text-anchor="end" class="group-meta">lower is better</text>
<text x="60" y="469" class="row-label" fill="#4c78a8">Plain</text>
<text x="60" y="492" class="row-status">completed</text>
<rect x="210" y="451" width="994" height="36" rx="7" class="track"/>
<rect x="210.00" y="451" width="34.15" height="36" fill="#4c78a8" fill-opacity="0.44" class="phase-segment" data-phase="backend-development"/>
<rect x="244.15" y="451" width="690.49" height="36" fill="#4c78a8" fill-opacity="0.58" class="phase-segment" data-phase="backend-review"/>
<text x="589.40" y="475" text-anchor="middle" class="segment-label">BE Rev</text>
<rect x="934.64" y="451" width="62.09" height="36" fill="#4c78a8" fill-opacity="0.7" class="phase-segment" data-phase="frontend-development"/>
<text x="965.68" y="475" text-anchor="middle" class="segment-label">FE Dev</text>
<rect x="996.73" y="451" width="173.86" height="36" fill="#4c78a8" fill-opacity="0.84" class="phase-segment" data-phase="frontend-review"/>
<text x="1083.66" y="475" text-anchor="middle" class="segment-label">FE Rev</text>
<rect x="1170.59" y="451" width="32.69" height="36" fill="#4c78a8" fill-opacity="1" class="phase-segment" data-phase="overall-review"/>
<text x="1404" y="474" text-anchor="end" class="value">507.9M tokens</text>
<text x="60" y="537" class="row-label" fill="#f58518">Evidence</text>
<text x="60" y="560" class="row-status">completed</text>
<rect x="210" y="519" width="994" height="36" rx="7" class="track"/>
<rect x="210.00" y="519" width="39.30" height="36" fill="#f58518" fill-opacity="0.44" class="phase-segment" data-phase="backend-development"/>
<rect x="249.30" y="519" width="43.09" height="36" fill="#f58518" fill-opacity="0.58" class="phase-segment" data-phase="backend-review"/>
<rect x="292.39" y="519" width="92.26" height="36" fill="#f58518" fill-opacity="0.7" class="phase-segment" data-phase="frontend-development"/>
<text x="338.52" y="543" text-anchor="middle" class="segment-label">FE Dev</text>
<rect x="384.65" y="519" width="100.96" height="36" fill="#f58518" fill-opacity="0.84" class="phase-segment" data-phase="frontend-review"/>
<text x="435.13" y="543" text-anchor="middle" class="segment-label">FE Rev</text>
<rect x="485.61" y="519" width="145.89" height="36" fill="#f58518" fill-opacity="1" class="phase-segment" data-phase="overall-review"/>
<text x="558.55" y="543" text-anchor="middle" class="segment-label">Overall</text>
<text x="1404" y="542" text-anchor="end" class="value">215.4M tokens (-58%)</text>
<rect x="28" y="614" width="1384" height="194" rx="10" class="group" fill-opacity="0.42"/>
<text x="60" y="643" class="group-title">Work time</text>
<text x="1404" y="642" text-anchor="end" class="group-meta">lower is better</text>
<text x="60" y="679" class="row-label" fill="#4c78a8">Plain</text>
<text x="60" y="702" class="row-status">completed</text>
<rect x="210" y="661" width="994" height="36" rx="7" class="track"/>
<rect x="210.00" y="661" width="45.27" height="36" fill="#4c78a8" fill-opacity="0.44" class="phase-segment" data-phase="backend-development"/>
<rect x="255.27" y="661" width="464.21" height="36" fill="#4c78a8" fill-opacity="0.58" class="phase-segment" data-phase="backend-review"/>
<text x="487.37" y="685" text-anchor="middle" class="segment-label">BE Rev</text>
<rect x="719.48" y="661" width="302.60" height="36" fill="#4c78a8" fill-opacity="0.7" class="phase-segment" data-phase="frontend-development"/>
<text x="870.78" y="685" text-anchor="middle" class="segment-label">FE Dev</text>
<rect x="1022.08" y="661" width="138.46" height="36" fill="#4c78a8" fill-opacity="0.84" class="phase-segment" data-phase="frontend-review"/>
<text x="1091.31" y="685" text-anchor="middle" class="segment-label">FE Rev</text>
<rect x="1160.54" y="661" width="43.46" height="36" fill="#4c78a8" fill-opacity="1" class="phase-segment" data-phase="overall-review"/>
<text x="1404" y="684" text-anchor="end" class="value">13h 55m</text>
<text x="60" y="747" class="row-label" fill="#f58518">Evidence</text>
<text x="60" y="770" class="row-status">completed</text>
<rect x="210" y="729" width="994" height="36" rx="7" class="track"/>
<rect x="210.00" y="729" width="45.66" height="36" fill="#f58518" fill-opacity="0.44" class="phase-segment" data-phase="backend-development"/>
<rect x="255.66" y="729" width="38.70" height="36" fill="#f58518" fill-opacity="0.58" class="phase-segment" data-phase="backend-review"/>
<rect x="294.36" y="729" width="89.40" height="36" fill="#f58518" fill-opacity="0.7" class="phase-segment" data-phase="frontend-development"/>
<text x="339.06" y="753" text-anchor="middle" class="segment-label">FE Dev</text>
<rect x="383.76" y="729" width="66.63" height="36" fill="#f58518" fill-opacity="0.84" class="phase-segment" data-phase="frontend-review"/>
<text x="417.08" y="753" text-anchor="middle" class="segment-label">FE Rev</text>
<rect x="450.39" y="729" width="109.98" height="36" fill="#f58518" fill-opacity="1" class="phase-segment" data-phase="overall-review"/>
<text x="505.38" y="753" text-anchor="middle" class="segment-label">Overall</text>
<text x="1404" y="752" text-anchor="end" class="value">4h 58m (-64%)</text>
<rect x="28" y="824" width="1384" height="194" rx="10" class="group" fill-opacity="0.78"/>
<text x="60" y="853" class="group-title">API cost</text>
<text x="1404" y="852" text-anchor="end" class="group-meta">lower is better · apportioned by token share</text>
<text x="60" y="889" class="row-label" fill="#4c78a8">Plain</text>
<text x="60" y="912" class="row-status">completed</text>
<rect x="210" y="871" width="994" height="36" rx="7" class="track"/>
<rect x="210.00" y="871" width="34.15" height="36" fill="#4c78a8" fill-opacity="0.44" class="phase-segment" data-phase="backend-development"/>
<rect x="244.15" y="871" width="690.49" height="36" fill="#4c78a8" fill-opacity="0.58" class="phase-segment" data-phase="backend-review"/>
<text x="589.40" y="895" text-anchor="middle" class="segment-label">BE Rev</text>
<rect x="934.64" y="871" width="62.09" height="36" fill="#4c78a8" fill-opacity="0.7" class="phase-segment" data-phase="frontend-development"/>
<text x="965.68" y="895" text-anchor="middle" class="segment-label">FE Dev</text>
<rect x="996.73" y="871" width="173.86" height="36" fill="#4c78a8" fill-opacity="0.84" class="phase-segment" data-phase="frontend-review"/>
<text x="1083.66" y="895" text-anchor="middle" class="segment-label">FE Rev</text>
<rect x="1170.59" y="871" width="32.69" height="36" fill="#4c78a8" fill-opacity="1" class="phase-segment" data-phase="overall-review"/>
<text x="1404" y="894" text-anchor="end" class="value">$6.38</text>
<text x="60" y="957" class="row-label" fill="#f58518">Evidence</text>
<text x="60" y="980" class="row-status">completed</text>
<rect x="210" y="939" width="994" height="36" rx="7" class="track"/>
<rect x="210.00" y="939" width="38.44" height="36" fill="#f58518" fill-opacity="0.44" class="phase-segment" data-phase="backend-development"/>
<rect x="248.44" y="939" width="42.16" height="36" fill="#f58518" fill-opacity="0.58" class="phase-segment" data-phase="backend-review"/>
<rect x="290.61" y="939" width="90.26" height="36" fill="#f58518" fill-opacity="0.7" class="phase-segment" data-phase="frontend-development"/>
<text x="335.74" y="963" text-anchor="middle" class="segment-label">FE Dev</text>
<rect x="380.87" y="939" width="98.77" height="36" fill="#f58518" fill-opacity="0.84" class="phase-segment" data-phase="frontend-review"/>
<text x="430.25" y="963" text-anchor="middle" class="segment-label">FE Rev</text>
<rect x="479.63" y="939" width="142.73" height="36" fill="#f58518" fill-opacity="1" class="phase-segment" data-phase="overall-review"/>
<text x="551.00" y="963" text-anchor="middle" class="segment-label">Overall</text>
<text x="1404" y="962" text-anchor="end" class="value">$2.65 (-59%)</text>
<text x="36" y="1049" class="table-note">API cost uses OpenRouter rates from 2026-08-01, emitted only after every measured request reconciles with retained counters.</text>
<text x="36" y="1064" class="table-note">Review inspection runs on the cell&apos;s own model and effort, so its tokens, time and price all sit inside these totals.</text>
<text x="36" y="1082" class="generated">Generated 2026-08-06T08:47:24.314Z</text>
</svg>
